<?xml version="1.0" standalone="no"?>
<!DOCTYPE svg PUBLIC "-//W3C//DTD SVG 20010904//EN"
 "http://www.w3.org/TR/2001/REC-SVG-20010904/DTD/svg10.dtd">
<svg version="1.0" xmlns="http://www.w3.org/2000/svg"
 width="1080.000000pt" height="1080.000000pt" viewBox="0 0 1080.000000 1080.000000"
 preserveAspectRatio="xMidYMid meet">

<g transform="translate(0.000000,1080.000000) scale(0.100000,-0.100000)"
fill="#000000" stroke="none">
<path d="M0 5400 l0 -5400 5400 0 5400 0 0 5400 0 5400 -5400 0 -5400 0 0
-5400z m5516 4160 c457 -36 850 -131 1297 -314 497 -203 842 -425 1287 -825
192 -173 247 -227 316 -312 78 -95 273 -392 353 -536 52 -94 67 -113 86 -113
14 0 31 11 43 27 11 16 23 25 26 22 3 -3 14 -43 23 -88 10 -48 24 -86 31 -89
8 -3 26 2 41 11 29 17 61 7 61 -18 0 -22 16 -18 37 9 14 19 31 26 73 31 30 4
57 11 58 16 5 12 32 12 32 0 0 -5 8 -12 18 -15 9 -2 27 -7 40 -11 19 -5 22 -3
22 19 0 16 12 38 32 57 l33 31 19 -44 c15 -34 19 -66 18 -155 0 -125 11 -152
44 -108 14 19 21 22 32 13 11 -9 16 -8 24 5 9 16 11 16 38 1 28 -17 29 -17 60
14 17 18 35 32 40 32 4 0 10 9 13 19 7 27 45 47 53 27 7 -19 -71 -112 -108
-128 -30 -14 -38 -33 -38 -98 0 -29 7 -54 20 -70 28 -36 25 -94 -11 -191 -17
-46 -35 -102 -41 -124 -5 -22 -16 -60 -24 -85 -21 -66 -17 -144 12 -261 19
-73 25 -118 21 -154 -4 -45 -2 -54 20 -75 17 -17 23 -30 18 -44 -20 -65 -18
-77 14 -57 17 11 27 96 12 105 -15 10 -14 26 2 26 14 0 37 -40 37 -63 0 -7 18
-25 40 -41 22 -17 40 -33 40 -38 0 -4 7 -8 16 -8 14 0 16 -8 11 -49 -3 -27
-10 -58 -15 -68 -6 -10 -22 -48 -37 -86 -16 -40 -40 -78 -57 -93 -36 -29 -101
-64 -122 -64 -8 0 -23 -10 -33 -23 -10 -12 -25 -21 -34 -19 -8 1 -28 -9 -42
-24 -29 -29 -35 -72 -17 -120 6 -15 12 -49 13 -75 2 -43 5 -48 30 -53 19 -4
27 -12 27 -26 0 -41 -56 -16 -73 33 -4 11 -14 17 -24 15 -14 -3 -18 -14 -18
-53 -1 -28 -4 -58 -9 -68 -5 -9 -5 -38 -1 -64 5 -37 16 -56 49 -88 23 -23 49
-59 59 -81 11 -23 29 -45 45 -52 53 -23 100 -76 127 -142 28 -67 76 -144 99
-157 7 -4 21 -20 31 -35 9 -15 20 -26 25 -23 15 9 48 -51 43 -78 -3 -15 -1
-33 5 -40 5 -6 13 -25 16 -42 5 -25 1 -36 -24 -63 -17 -17 -39 -32 -49 -32
-10 0 -32 -3 -49 -6 -27 -5 -32 -2 -47 26 -12 22 -15 45 -11 70 7 43 -3 58
-61 94 -24 14 -43 32 -43 40 0 24 -38 47 -81 51 -24 1 -45 8 -47 14 -2 6 -17
11 -33 11 -16 0 -42 8 -60 19 -57 35 -95 4 -133 -109 -14 -41 -26 -85 -26 -97
0 -13 -22 -65 -50 -117 -27 -52 -75 -164 -106 -248 -58 -158 -195 -437 -304
-619 -93 -155 -250 -379 -358 -509 -109 -132 -417 -441 -560 -561 -236 -198
-614 -423 -937 -557 -456 -190 -837 -285 -1293 -323 -210 -17 -656 -7 -842 20
-612 89 -1107 264 -1615 571 -172 104 -489 344 -596 451 -15 15 -52 43 -83 64
-60 40 -173 158 -218 228 -14 23 -40 58 -57 77 -17 19 -39 44 -49 55 -34 38
-43 53 -48 81 -3 15 -26 57 -51 93 -25 36 -46 70 -47 76 -1 5 -38 69 -82 140
-111 178 -175 292 -249 448 -89 185 -91 223 -2 47 115 -230 164 -316 256 -455
87 -132 113 -161 239 -275 40 -36 93 -95 118 -132 63 -94 149 -158 211 -158
19 0 43 -13 71 -38 34 -31 42 -45 42 -72 0 -30 10 -44 77 -108 43 -40 105 -99
138 -130 82 -78 160 -137 306 -230 280 -179 478 -280 754 -385 209 -79 232
-86 425 -136 493 -125 1042 -150 1546 -71 461 73 943 244 1334 475 63 37 131
77 150 87 105 59 256 167 335 241 22 21 57 48 78 62 20 14 55 37 78 52 59 39
320 302 430 434 269 322 482 670 599 979 18 47 48 119 67 160 19 41 41 106 49
145 8 38 23 101 34 140 11 38 20 82 20 97 0 15 5 30 10 33 6 3 10 39 9 78 0
58 -2 67 -10 47 -13 -31 -24 -38 -65 -38 -43 0 -54 -8 -54 -39 0 -33 -34 -79
-64 -87 -24 -6 -41 -39 -48 -95 -2 -13 -10 -27 -18 -31 -8 -4 -30 -15 -48 -24
-36 -19 -62 -15 -62 9 0 8 -3 15 -8 15 -4 0 -26 18 -49 41 -37 36 -49 41 -95
43 -29 2 -71 6 -93 10 -37 7 -44 4 -89 -34 -57 -48 -88 -57 -124 -39 -15 7
-50 14 -79 15 -28 1 -66 9 -84 18 -18 9 -41 16 -52 16 -11 0 -34 9 -52 20 -32
20 -33 22 -23 62 9 40 21 57 43 59 6 0 30 2 55 4 57 4 185 32 211 45 10 6 38
24 62 39 23 16 58 32 78 35 52 8 88 23 121 51 16 14 35 25 43 25 7 0 20 11 28
24 17 25 101 53 195 65 46 5 59 12 108 60 30 29 71 62 90 71 62 32 124 84 130
110 12 51 13 53 43 47 52 -11 63 8 66 113 1 60 7 96 14 98 26 9 41 34 35 58
-8 30 -85 168 -111 196 -24 27 -89 68 -107 68 -8 0 -19 6 -23 14 -4 8 -38 28
-75 46 -38 17 -68 34 -68 38 0 9 -58 42 -73 42 -21 0 -47 34 -47 63 0 47 22
107 43 118 13 8 27 7 48 -1 16 -7 44 -10 62 -8 17 3 61 2 97 -2 49 -5 69 -4
81 6 8 8 27 14 41 14 38 0 39 8 10 60 -24 43 -30 48 -54 43 -27 -5 -28 -4 -28
32 0 32 -2 36 -15 25 -8 -7 -24 -10 -36 -7 -24 6 -69 -35 -69 -63 0 -9 -6 -24
-13 -35 -20 -26 -30 -5 -29 64 0 31 -6 81 -14 111 -10 37 -13 78 -9 125 6 78
-3 105 -46 138 -26 19 -27 19 -110 -2 -45 -12 -87 -21 -91 -21 -5 0 -6 23 -2
50 6 49 6 50 -20 50 -14 0 -26 5 -26 10 0 6 9 10 19 10 10 0 21 7 25 15 3 8
11 13 18 10 19 -7 68 103 68 151 l0 39 -56 -3 c-47 -3 -57 -8 -66 -28 -6 -13
-14 -21 -18 -19 -4 3 -28 1 -53 -4 -45 -8 -45 -8 -51 22 -8 40 12 95 47 130
33 32 43 34 57 7 6 -11 17 -20 25 -20 8 0 15 -9 15 -20 0 -11 2 -20 4 -20 2 0
11 -2 19 -6 11 -4 16 7 20 45 9 77 31 111 70 111 l32 0 -1 63 c-2 288 -1 278
-42 345 -68 114 -266 386 -318 439 -29 29 -61 67 -73 86 -11 18 -30 42 -41 52
-27 24 -95 124 -104 152 -4 11 -37 49 -74 84 -37 35 -77 75 -87 89 -11 14 -45
46 -75 72 -30 25 -82 71 -114 103 -113 108 -395 309 -601 427 -123 70 -336
175 -454 223 -285 116 -669 209 -1016 247 -159 17 -684 17 -830 0 -633 -75
-1189 -271 -1712 -603 -606 -384 -1118 -955 -1428 -1590 -57 -118 -63 -145
-47 -216 8 -37 6 -47 -13 -75 -27 -42 -75 -135 -75 -147 0 -5 8 -12 18 -15 37
-14 72 -38 82 -57 13 -23 48 -25 57 -3 3 8 16 20 29 25 17 6 24 16 24 35 0 37
19 96 39 123 l17 22 26 -20 c14 -12 48 -26 75 -32 46 -11 51 -10 99 20 28 17
58 31 66 31 9 0 22 7 29 16 7 9 22 20 34 25 11 5 27 14 36 21 23 16 49 3 49
-26 0 -14 5 -37 12 -51 9 -19 9 -28 0 -37 -7 -7 -12 -27 -12 -45 0 -27 -5 -35
-25 -43 -32 -12 -32 -30 2 -62 27 -25 47 -34 94 -43 30 -6 39 -22 37 -68 -2
-43 9 -59 23 -34 13 23 36 22 50 -4 14 -26 3 -35 -56 -44 -23 -3 -51 -15 -61
-26 -11 -10 -33 -33 -50 -50 -20 -19 -30 -37 -27 -48 3 -12 -8 -27 -34 -46
-21 -16 -41 -34 -45 -41 -13 -20 -71 -40 -76 -26 -14 44 -49 -28 -54 -113 -2
-48 0 -60 13 -63 11 -2 19 8 25 29 5 18 15 34 21 36 18 6 61 -67 64 -109 3
-33 -3 -42 -70 -109 -67 -66 -74 -78 -78 -118 -4 -52 -17 -71 -50 -71 -13 0
-34 -5 -45 -11 -19 -10 -20 -9 -13 7 45 109 60 204 34 219 -7 5 -3 14 9 26 12
10 25 43 32 76 6 32 14 69 17 83 3 14 7 30 7 35 1 6 7 21 14 34 9 15 10 27 4
33 -6 6 -16 -5 -28 -31 -11 -22 -26 -41 -34 -41 -16 -1 -100 -162 -100 -191 0
-9 -7 -29 -15 -45 -8 -15 -14 -48 -13 -71 0 -33 -5 -50 -22 -68 -26 -28 -74
-33 -102 -12 -23 18 -55 83 -69 142 -28 118 -56 154 -69 89 -9 -39 -18 -55
-33 -52 -7 1 -33 -19 -59 -44 -66 -65 -77 -118 -23 -118 17 0 25 6 27 23 4 32
32 28 36 -5 2 -15 11 -33 20 -40 18 -14 52 -80 52 -101 0 -7 9 -13 19 -14 28
-2 68 -31 74 -53 3 -13 -2 -19 -22 -23 -32 -6 -41 -1 -41 23 0 23 -25 33 -40
15 -7 -8 -16 -12 -21 -10 -4 3 -18 0 -29 -7 -17 -11 -22 -11 -31 2 -8 11 -12
12 -16 3 -6 -15 -33 -17 -33 -3 0 6 7 10 16 10 13 0 15 6 9 27 -9 36 -13 39
-27 25 -7 -7 -19 -12 -28 -12 -9 0 -31 -19 -49 -42 -28 -38 -32 -48 -26 -83 3
-23 15 -47 27 -56 22 -17 94 -24 112 -10 21 16 132 21 151 7 43 -31 12 -96
-71 -151 -30 -20 -60 -45 -67 -56 -6 -10 -23 -19 -37 -19 -60 0 -98 -13 -108
-35 -6 -12 -29 -36 -51 -51 -38 -27 -41 -32 -42 -79 -1 -47 -1 -48 -12 -23
l-12 26 -17 -36 c-37 -82 -42 -107 -31 -183 13 -94 7 -103 -60 -95 -27 4 -59
13 -71 21 -20 13 -27 13 -65 -2 -36 -14 -44 -14 -56 -2 -16 17 -35 172 -40
327 -3 125 -16 159 -64 168 -15 3 -40 21 -55 41 -35 43 -29 73 18 101 23 13
36 31 41 51 3 17 11 33 16 36 5 4 9 15 9 26 0 11 -4 18 -9 14 -12 -6 -31 26
-31 51 0 18 27 43 48 44 8 0 12 -16 12 -49 0 -55 4 -60 49 -65 17 -2 38 -9 47
-17 14 -11 18 -11 30 5 7 10 19 16 27 13 8 -3 20 0 26 6 15 15 14 86 -3 118
-12 23 -11 31 4 64 10 22 18 64 18 107 2 69 1 71 -38 109 -40 40 -47 61 -41
133 4 44 65 134 104 152 l34 16 -1 177 c-1 166 0 179 23 224 16 32 34 52 57
63 40 19 45 33 39 104 -7 87 25 161 51 119 12 -20 43 52 44 101 0 38 7 54 47
103 36 44 53 57 74 57 26 0 34 13 121 183 201 391 430 707 731 1008 654 655
1508 1063 2432 1159 200 21 499 25 691 10z m2174 -2385 c0 -8 -4 -17 -10 -20
-6 -4 -10 5 -10 20 0 15 4 24 10 20 6 -3 10 -12 10 -20z m119 -16 c-8 -5 -9
-9 -4 -9 6 -1 -2 -7 -17 -15 -21 -12 -32 -13 -53 -3 -29 13 -28 34 2 30 11 -1
30 1 44 6 27 11 48 4 28 -9z m-3036 -13 c24 -1 31 -7 42 -41 16 -45 13 -50
-49 -59 -66 -10 -203 -55 -216 -71 -25 -30 -33 -16 -27 47 4 43 11 66 23 75
27 20 52 16 70 -12 20 -31 35 -23 28 14 -3 16 -1 38 5 49 10 18 15 19 53 10
24 -6 56 -11 71 -12z m-403 -21 c0 -21 5 -25 30 -25 19 0 37 -8 48 -21 9 -12
25 -29 35 -38 9 -8 17 -27 17 -41 0 -21 -7 -28 -37 -39 -78 -27 -259 -166
-287 -220 -10 -20 -26 -45 -36 -56 -17 -19 -22 -31 -34 -87 -4 -16 -12 -28
-19 -28 -14 0 -67 53 -67 67 0 6 -18 29 -40 53 -22 24 -40 46 -40 50 0 24 45
93 68 102 15 7 39 23 55 37 26 24 99 50 143 51 23 0 34 23 34 74 0 16 12 42
28 61 15 18 35 45 45 59 24 34 57 35 57 1z m3495 -197 c8 -28 15 -57 15 -64 0
-11 21 -24 40 -24 5 0 18 19 28 43 26 57 53 80 86 71 35 -8 39 -18 42 -88 4
-84 22 -92 75 -32 44 49 62 55 97 30 26 -18 29 -58 7 -111 -14 -33 -14 -38 1
-54 16 -18 18 -18 45 2 15 11 43 26 62 34 32 13 36 13 57 -10 25 -27 22 -49
-17 -107 -20 -30 -23 -40 -13 -57 13 -25 8 -25 61 -1 65 29 95 26 114 -11 19
-35 15 -43 -47 -99 -58 -52 -46 -70 44 -70 68 0 69 0 83 -32 12 -30 13 -31 17
-9 l3 23 28 -22 c25 -20 33 -21 78 -13 45 9 49 9 49 -9 0 -12 -9 -22 -21 -25
-12 -3 -18 -11 -15 -19 3 -8 -5 -26 -18 -40 -19 -23 -27 -26 -59 -20 -24 4
-45 17 -58 35 l-21 29 -49 -22 c-40 -17 -47 -25 -42 -41 7 -25 -3 -19 73 -41
61 -18 65 -22 68 -51 4 -38 -18 -56 -89 -74 -39 -10 -49 -17 -49 -34 0 -15 10
-25 33 -33 50 -18 80 -54 71 -86 -9 -36 -35 -48 -96 -45 -39 2 -52 -1 -60 -15
-8 -14 -1 -25 36 -57 48 -42 56 -69 32 -101 -16 -22 -64 -23 -113 -3 -20 8
-37 14 -37 13 -1 -2 -8 -11 -15 -20 -11 -15 -10 -22 8 -47 38 -53 46 -89 26
-111 -25 -28 -53 -25 -107 9 -39 25 -49 27 -63 17 -16 -11 -16 -16 -1 -59 21
-61 20 -87 -1 -103 -32 -24 -59 -16 -102 31 -36 40 -44 44 -63 34 -16 -9 -19
-17 -15 -45 3 -19 3 -50 0 -69 -5 -29 -11 -37 -37 -44 -38 -10 -57 4 -87 66
-28 57 -59 57 -71 0 -14 -67 -35 -97 -69 -97 -24 0 -33 6 -44 33 -7 17 -16 49
-20 70 -6 33 -11 37 -36 37 -17 0 -29 -5 -29 -13 0 -25 -54 -97 -73 -97 -45 0
-57 17 -57 85 0 54 -3 66 -20 75 -16 9 -26 4 -61 -35 -45 -49 -75 -57 -103
-27 -18 21 -14 66 10 114 13 24 12 28 -8 42 -12 8 -26 12 -32 9 -6 -4 -26 -17
-45 -30 -41 -28 -72 -29 -95 -4 -21 23 -16 47 21 103 20 30 23 40 13 57 -13
25 -8 24 -60 6 -64 -23 -95 -20 -108 10 -16 34 -18 30 33 84 33 36 43 52 38
69 -5 20 -10 22 -52 16 -60 -8 -97 7 -106 43 -5 23 -2 32 22 50 15 13 43 29
61 35 35 13 34 13 26 44 -4 16 -16 23 -45 28 -79 13 -105 37 -88 83 7 20 54
43 88 43 23 0 37 12 45 37 6 18 0 25 -36 42 -68 32 -81 46 -73 78 9 38 20 43
92 43 84 0 91 20 28 82 -49 50 -54 65 -27 97 16 20 19 21 67 8 28 -8 57 -17
66 -21 10 -4 19 1 28 17 12 22 10 29 -18 67 -36 50 -39 80 -11 105 16 14 24
15 50 7 17 -6 44 -20 59 -32 34 -24 45 -25 60 -6 8 10 7 22 -4 49 -23 55 -19
94 9 112 30 20 49 11 95 -41 26 -29 37 -35 57 -30 23 6 24 10 18 54 -7 60 7
98 41 106 34 9 57 -10 86 -71 15 -30 26 -42 36 -39 8 3 19 6 24 6 5 0 9 8 9
18 0 10 7 39 16 65 15 45 17 47 55 47 37 0 39 -1 54 -52z m705 -262 c0 -16
-14 -36 -26 -36 -14 0 -19 22 -7 33 7 8 33 10 33 3z m-4934 -181 c66 -29 95
-74 101 -158 4 -52 1 -69 -19 -107 -14 -25 -38 -54 -56 -65 -17 -11 -31 -25
-32 -31 0 -6 25 -66 55 -134 30 -68 55 -129 55 -136 0 -16 -23 -24 -71 -24
-46 0 -50 4 -115 153 l-47 107 -53 0 c-30 0 -57 1 -61 3 -5 1 -10 -56 -13
-128 l-5 -130 -55 0 -55 0 -3 40 c-5 89 -11 105 -39 105 -24 0 -25 -2 -19 -40
6 -37 4 -41 -31 -65 -21 -14 -45 -25 -54 -25 -22 0 -89 -54 -111 -90 -19 -32
-63 -49 -81 -31 -19 19 -37 12 -58 -24 -24 -39 -59 -48 -59 -15 0 12 15 44 33
73 18 29 36 59 40 67 4 8 25 47 47 85 21 39 53 96 70 128 17 31 36 57 43 57 6
-1 36 -23 66 -49 62 -55 86 -57 95 -6 5 25 13 35 29 37 22 3 22 5 25 210 l2
207 43 6 c134 18 266 10 333 -20z m-664 14 c42 -17 49 -87 12 -129 -7 -8 -17
-38 -21 -65 -8 -49 -9 -50 -44 -50 -52 -1 -86 -27 -99 -77 -6 -24 -15 -55 -21
-69 -7 -17 -6 -34 1 -53 5 -15 7 -32 4 -37 -3 -6 0 -17 7 -25 10 -12 8 -18 -9
-30 -12 -8 -22 -24 -22 -34 0 -31 -40 -100 -59 -100 -18 1 -61 30 -43 30 7 0
12 11 12 25 0 20 -5 25 -25 25 -14 0 -25 -4 -25 -9 0 -5 -10 -13 -22 -17 -15
-4 -25 -1 -35 12 -7 9 -16 15 -19 11 -4 -3 -15 -2 -26 4 -16 8 -21 5 -32 -23
-18 -42 -24 -48 -42 -41 -12 4 -15 24 -14 82 1 42 -1 115 -4 163 -6 88 -6 88
24 116 16 16 30 34 30 40 0 6 12 12 28 14 20 2 30 11 37 33 12 34 39 79 69
113 11 12 16 22 11 22 -4 0 0 9 11 21 15 17 28 20 78 18 51 -2 60 0 66 17 6
16 19 19 76 21 38 1 81 -3 96 -8z m1496 -116 l3 -52 62 -3 62 -3 0 -50 0 -50
-62 -3 -63 -3 0 -129 c0 -151 5 -160 80 -160 l48 0 4 -41 c2 -22 -1 -44 -7
-49 -21 -17 -118 -22 -159 -8 -68 23 -80 56 -85 235 l-3 152 -27 3 c-24 3 -26
6 -26 53 0 47 2 50 27 53 24 3 27 8 30 45 3 38 6 43 38 54 62 22 75 15 78 -44z
m2140 0 l3 -52 62 -3 62 -3 0 -50 0 -50 -62 -3 -63 -3 0 -134 c0 -96 4 -136
13 -142 6 -4 35 -10 62 -13 l50 -5 0 -45 0 -45 -66 -9 c-57 -8 -72 -6 -105 10
-60 29 -68 57 -72 231 l-4 152 -26 3 c-25 3 -27 6 -27 53 0 47 2 50 28 53 24
3 27 7 27 41 0 51 27 71 90 68 23 -2 25 -6 28 -54z m-3448 -17 c0 -3 -4 -8
-10 -11 -5 -3 -10 -1 -10 4 0 6 5 11 10 11 6 0 10 -2 10 -4z m1003 -62 c64
-46 88 -112 84 -235 -5 -158 -56 -228 -181 -243 -80 -10 -154 10 -198 53 -44
45 -62 101 -62 201 -1 98 19 164 61 206 43 43 81 54 176 50 67 -2 83 -7 120
-32z m831 13 c54 -36 61 -65 64 -280 4 -220 3 -222 -64 -198 -26 10 -48 9
-112 -4 -161 -33 -234 25 -220 176 8 84 55 115 194 126 77 5 84 8 84 28 0 11
-6 30 -14 41 -13 17 -25 19 -125 16 l-111 -3 0 50 0 50 48 6 c26 3 54 8 62 10
39 10 170 -3 194 -18z m830 2 c16 -8 39 -27 50 -42 19 -26 21 -44 24 -238 l3
-209 -26 0 c-15 0 -36 5 -47 11 -16 9 -35 8 -77 -2 -116 -29 -195 -12 -232 48
-18 28 -21 46 -17 103 6 105 47 137 193 147 84 6 85 6 85 33 0 15 -6 32 -13
38 -7 6 -62 13 -123 14 l-109 3 -3 43 c-2 30 1 44 11 48 66 25 232 27 281 3z
m525 1 c18 -9 22 -19 19 -53 l-3 -42 -101 3 c-96 3 -103 2 -130 -21 -27 -24
-29 -30 -32 -114 -5 -145 24 -173 159 -157 54 7 88 7 97 1 14 -11 17 -83 3
-92 -5 -3 -45 -10 -89 -16 -152 -20 -253 25 -281 126 -14 51 -14 198 0 248 13
48 72 114 113 127 40 12 217 6 245 -10z m-1062 -11 c4 -14 10 -18 22 -13 112
48 133 45 129 -22 -3 -45 -3 -46 -56 -63 -92 -31 -91 -30 -94 -215 l-3 -161
-43 -3 c-73 -5 -72 -8 -72 243 0 123 3 230 6 239 4 12 20 16 56 16 42 0 51 -3
55 -21z m-4455 -213 c14 -17 29 -45 32 -61 3 -17 8 -47 12 -67 5 -30 3 -38 -8
-38 -24 0 -54 42 -78 107 -33 92 -11 123 42 59z m2005 -48 c-3 -8 -6 -5 -6 6
-1 11 2 17 5 13 3 -3 4 -12 1 -19z m5888 -98 c3 -5 1 -10 -4 -10 -6 0 -11 5
-11 10 0 6 2 10 4 10 3 0 8 -4 11 -10z m-7885 -74 c0 -8 -4 -18 -10 -21 -5 -3
-10 3 -10 14 0 12 5 21 10 21 6 0 10 -6 10 -14z m81 -46 c11 -6 19 -21 19 -36
0 -14 5 -34 10 -45 7 -12 7 -31 2 -51 -8 -29 -10 -31 -17 -13 -5 11 -19 33
-32 48 -28 34 -32 107 -6 107 3 0 13 -5 24 -10z m7820 -38 c17 -20 4 -26 -72
-30 -46 -3 -69 -1 -69 7 0 6 9 11 20 11 10 0 23 7 28 16 5 8 20 21 33 28 20
11 26 11 36 -3 7 -9 17 -22 24 -29z m-6354 -44 c16 -27 53 -144 48 -156 -2 -6
-1 -32 4 -57 5 -24 6 -47 3 -50 -9 -9 -42 55 -42 83 -1 29 -21 62 -38 62 -19
0 -24 40 -11 86 14 45 22 53 36 32z m-1360 -74 c9 -23 -13 -40 -32 -24 -12 10
-13 16 -4 26 15 18 28 18 36 -2z m1172 -15 c18 -52 14 -69 -14 -69 -33 0 -50
35 -36 73 14 36 37 34 50 -4z m-1319 -19 c0 -5 -5 -10 -11 -10 -5 0 -7 5 -4
10 3 6 8 10 11 10 2 0 4 -4 4 -10z m1388 -338 c2 -227 2 -232 -18 -232 -19 0
-20 6 -20 228 0 126 3 232 7 236 23 23 28 -13 31 -232z m490 135 l3 -98 30 25
c56 48 158 26 193 -41 52 -101 3 -241 -91 -259 -45 -8 -108 10 -128 39 l-15
21 0 -27 c0 -17 -5 -27 -15 -27 -13 0 -15 33 -15 236 0 219 1 235 18 232 15
-3 17 -17 20 -101z m970 86 c2 -9 -9 -13 -36 -13 -50 0 -72 -24 -75 -81 l-2
-44 43 -3 c23 -2 42 -7 42 -12 0 -5 -19 -10 -42 -12 l-43 -3 -3 -142 c-2 -118
-5 -143 -17 -143 -13 0 -15 24 -15 145 0 138 -1 145 -20 145 -11 0 -20 5 -20
10 0 6 8 10 19 10 14 0 19 10 24 49 7 56 22 85 52 100 27 13 87 9 93 -6z m610
-221 c2 -227 2 -232 -18 -232 -19 0 -20 6 -20 228 0 126 3 232 7 236 23 23 28
-13 31 -232z m143 132 c3 -54 6 -93 7 -87 3 19 57 43 96 43 25 0 45 -9 67 -28
27 -24 32 -37 39 -102 5 -41 9 -101 10 -132 0 -51 -2 -58 -20 -58 -19 0 -20 7
-20 110 0 80 -4 119 -15 140 -26 51 -95 52 -141 3 -22 -24 -24 -33 -24 -139 0
-107 -1 -114 -20 -114 -19 0 -20 7 -20 228 0 126 3 232 7 236 19 19 28 -9 34
-100z m-1950 80 c7 -8 21 -13 31 -11 21 6 24 -13 7 -44 -14 -27 -42 -59 -50
-59 -4 0 -14 23 -23 51 -13 39 -14 54 -5 65 15 18 23 18 40 -2z m-378 -13 c18
-18 -2 -30 -36 -20 -49 14 -98 11 -142 -10 -74 -34 -105 -90 -105 -190 0 -124
75 -196 195 -188 33 2 66 6 74 8 7 2 15 -1 18 -8 5 -14 -56 -33 -107 -33 -97
0 -187 64 -210 150 -37 135 33 270 154 301 37 10 146 3 159 -10z m1777 -167
c3 -109 9 -177 18 -191 33 -58 118 -72 170 -28 41 34 52 88 52 254 0 119 2
141 15 141 13 0 15 -25 15 -163 0 -152 -2 -167 -23 -208 -55 -104 -208 -107
-261 -4 -18 34 -21 63 -25 193 -3 157 0 187 22 180 9 -3 13 -51 17 -174z
m4631 137 c33 -33 35 -50 14 -90 -24 -48 -81 -56 -120 -16 -39 38 -29 106 18
125 38 15 58 11 88 -19z m679 -51 c0 -5 -4 -10 -10 -10 -5 0 -10 5 -10 10 0 6
5 10 10 10 6 0 10 -4 10 -10z m-6830 -164 c5 -119 7 -129 29 -147 34 -28 75
-24 113 10 l33 29 0 119 c0 98 3 118 15 118 13 0 15 -25 18 -157 2 -136 0
-158 -13 -158 -8 0 -15 9 -15 20 0 18 -2 18 -37 -6 -31 -21 -46 -25 -81 -21
-52 6 -79 28 -92 76 -11 41 -14 234 -3 245 21 20 28 -10 33 -128z m1010 119
c107 -55 104 -247 -4 -296 -51 -23 -88 -24 -132 -3 -62 30 -95 115 -75 192 13
46 53 99 85 112 33 14 95 11 126 -5z m1520 2 c14 -7 30 -24 37 -37 17 -36 22
-270 6 -270 -7 0 -13 7 -13 15 0 19 2 19 -45 -5 -45 -23 -77 -25 -108 -8 -32
17 -46 39 -47 74 0 62 68 114 150 114 37 0 40 2 40 28 0 16 -10 38 -21 51 -18
19 -29 22 -68 19 -25 -2 -52 -6 -60 -9 -27 -8 -21 19 6 29 39 15 93 14 123 -1z
m284 7 c9 -3 16 -12 16 -19 0 -8 -14 -11 -48 -7 -52 5 -82 -13 -82 -46 0 -27
11 -38 67 -66 57 -28 83 -58 83 -94 0 -69 -85 -112 -164 -82 -17 6 -24 14 -20
24 5 12 11 13 24 6 21 -11 70 -13 95 -4 9 4 21 18 26 32 13 34 -11 68 -62 88
-88 36 -106 121 -34 162 22 12 74 16 99 6z m328 -23 l33 -29 3 -131 c3 -110 1
-131 -11 -131 -12 0 -16 22 -18 114 -5 134 -21 168 -79 174 -81 8 -110 -42
-110 -187 0 -83 -3 -101 -15 -101 -13 0 -15 24 -15 155 0 131 2 155 15 155 9
0 15 -9 15 -21 0 -20 1 -20 31 5 44 38 107 36 151 -3z m281 18 c43 -20 51 -46
55 -181 4 -112 2 -128 -12 -128 -10 0 -16 8 -16 22 l0 21 -24 -22 c-15 -14
-42 -25 -69 -28 -36 -4 -48 -1 -72 20 -24 20 -30 33 -30 65 0 66 59 112 145
112 38 0 40 2 40 30 0 59 -64 87 -134 60 -21 -8 -26 -6 -26 6 0 30 94 45 143
23z m337 -4 c15 -8 30 -20 33 -27 3 -7 6 -3 6 10 1 12 7 22 16 22 13 0 15 -26
15 -170 0 -187 -8 -223 -54 -253 -36 -24 -115 -32 -160 -17 -37 12 -45 38 -10
32 63 -12 108 -13 134 -2 34 14 60 64 60 115 l0 37 -31 -26 c-45 -38 -116 -37
-162 4 -105 92 -47 290 86 290 21 0 51 -7 67 -15z m341 -14 c29 -29 29 -31 29
-144 0 -64 3 -122 6 -131 4 -11 1 -16 -10 -16 -9 0 -16 7 -16 15 0 19 -3 19
-42 -5 -96 -58 -191 16 -146 114 14 33 83 66 136 66 37 0 42 3 42 24 0 13 -10
36 -21 51 -19 24 -27 26 -68 23 -25 -2 -52 -6 -60 -9 -7 -2 -15 1 -18 8 -5 15
42 31 95 32 35 1 49 -5 73 -28z m269 15 c0 -7 -13 -16 -30 -19 -53 -11 -70
-55 -70 -179 0 -101 -1 -108 -20 -108 -19 0 -20 7 -20 155 0 131 2 155 15 155
9 0 15 -10 15 -26 l0 -26 29 31 c30 32 81 43 81 17z m-720 -718 c0 -51 3 -157
7 -235 6 -142 6 -143 -15 -143 -15 0 -22 6 -22 20 0 18 -2 18 -37 -6 -30 -21
-47 -25 -80 -21 -63 7 -100 39 -119 103 -16 57 -13 95 13 151 32 69 135 97
195 53 l28 -21 0 96 c0 78 3 95 15 95 12 0 15 -17 15 -92z m-2728 59 c20 -8
25 -16 19 -26 -6 -10 -13 -11 -29 -2 -38 20 -100 13 -127 -14 -51 -50 -28
-103 64 -149 83 -42 111 -74 111 -127 0 -57 -18 -86 -67 -110 -46 -22 -110
-22 -153 1 -28 15 -26 34 3 25 12 -4 45 -9 72 -12 45 -5 55 -2 83 22 25 21 32
35 32 62 0 53 -16 73 -85 104 -104 47 -142 118 -98 186 31 47 115 67 175 40z
m1850 3 c25 -7 35 -15 32 -25 -4 -10 -12 -12 -31 -4 -39 15 -115 10 -159 -10
-23 -10 -54 -36 -70 -57 -27 -35 -29 -44 -29 -125 0 -73 3 -92 21 -116 47 -64
133 -95 211 -76 l38 9 3 76 3 77 -53 3 c-76 4 -66 22 15 26 l67 3 0 -101 c0
-114 1 -113 -98 -126 -171 -22 -288 125 -238 299 34 116 163 181 288 147z
m1169 -133 c26 -16 59 -81 59 -116 l0 -31 -115 0 -115 0 0 -27 c0 -76 77 -126
159 -105 27 6 43 6 47 0 13 -20 -19 -33 -85 -33 -58 0 -72 4 -103 27 -98 75
-61 271 57 301 25 6 74 -2 96 -16z m350 -13 c28 -25 39 -78 39 -191 0 -96 -1
-103 -20 -103 -19 0 -20 7 -20 120 0 115 -1 122 -25 145 -26 27 -72 33 -106
15 -37 -20 -49 -63 -49 -175 0 -98 -1 -105 -20 -105 -19 0 -20 7 -20 160 0
140 2 160 16 160 9 0 18 -9 21 -20 4 -16 8 -18 19 -9 47 38 124 40 165 3z
m-3086 4 c33 -29 44 -79 45 -200 0 -77 -3 -98 -14 -98 -8 0 -16 6 -19 14 -5
12 -12 11 -44 -5 -54 -27 -89 -24 -124 10 -31 31 -38 75 -19 112 13 23 80 59
112 59 13 0 34 3 46 7 21 5 23 10 18 37 -4 17 -14 37 -23 44 -20 14 -91 16
-113 2 -9 -6 -17 -5 -22 3 -11 18 31 36 84 37 35 0 54 -6 73 -22z m173 -7 l3
-22 30 26 c39 32 107 34 154 5 92 -57 82 -240 -15 -292 -41 -23 -111 -19 -139
6 -10 9 -21 16 -24 16 -4 0 -7 -36 -7 -80 0 -73 -2 -80 -20 -80 -19 0 -20 7
-20 218 0 120 3 222 7 226 12 12 28 0 31 -23z m359 10 c5 -19 5 -19 36 0 46
27 112 25 142 -5 33 -33 45 -86 45 -198 0 -91 -1 -98 -20 -98 -19 0 -20 7 -20
119 0 105 -2 121 -21 145 -28 35 -86 36 -126 2 -27 -24 -28 -27 -31 -145 -3
-111 -5 -121 -23 -121 -18 0 -19 9 -19 160 0 140 2 160 16 160 9 0 18 -9 21
-19z m481 -4 c32 -34 42 -79 42 -194 0 -85 -3 -103 -15 -103 -8 0 -15 7 -15
15 0 19 -3 19 -42 -5 -48 -29 -93 -26 -129 9 -50 50 -34 117 36 151 23 11 50
20 61 20 62 1 81 31 48 78 -12 17 -25 22 -60 22 -25 0 -54 -5 -65 -10 -15 -8
-19 -7 -19 4 0 23 30 35 86 36 40 0 55 -5 72 -23z m855 3 c31 -25 36 -48 39
-193 2 -75 0 -107 -8 -107 -7 0 -14 7 -18 15 -5 13 -11 13 -43 -5 -51 -27 -85
-25 -122 6 -25 20 -31 34 -31 64 0 67 40 99 148 115 45 7 50 17 30 60 -16 35
-68 44 -137 24 -23 -7 -23 17 1 29 39 19 112 14 141 -8z m167 -7 l0 -27 28 27
c31 30 82 37 82 12 0 -9 -9 -15 -21 -15 -11 0 -34 -13 -50 -29 -29 -29 -29
-31 -29 -145 0 -109 -1 -116 -20 -116 -19 0 -20 7 -20 153 0 85 3 157 7 160
14 14 23 6 23 -20z m2201 -25 c13 -18 26 -35 31 -38 4 -3 0 -26 -9 -50 -9 -25
-19 -61 -22 -80 -6 -34 -8 -35 -51 -35 -25 -1 -55 -4 -66 -8 -17 -6 -29 0 -53
23 -39 39 -40 64 -3 79 15 6 41 28 57 48 17 20 41 49 53 65 13 15 28 28 32 28
5 0 19 -15 31 -32z m-6257 -538 c3 -14 -5 -2 -18 27 -13 28 -27 62 -30 75 -3
12 5 1 18 -27 13 -27 26 -61 30 -75z m5532 -466 c4 -17 1 -31 -9 -41 -16 -16
-42 -9 -31 8 3 6 -2 17 -12 24 -18 13 -18 14 -1 15 9 0 17 5 17 10 0 22 30 8
36 -16z m-67 -26 c15 -41 -16 -51 -67 -22 -1 0 0 9 4 18 3 9 9 14 13 12 4 -3
13 -1 21 5 20 12 20 12 29 -13z m-115 -149 c11 -16 18 -19 32 -11 12 7 26 6
42 -1 18 -8 25 -8 32 3 7 11 14 9 34 -11 14 -13 26 -30 26 -36 0 -18 29 -16
37 3 3 8 1 26 -5 40 -10 21 -9 24 7 24 14 0 23 -12 32 -37 11 -36 37 -81 42
-75 4 6 37 -10 37 -19 0 -9 11 -23 63 -84 15 -18 27 -43 27 -55 0 -31 -75
-186 -94 -193 -8 -3 -22 -3 -33 -1 -23 6 -89 -21 -101 -42 -8 -14 -13 -14 -53
6 -54 28 -95 71 -110 119 -6 20 -15 41 -20 46 -4 6 -11 31 -15 55 -5 31 -17
54 -37 73 -30 28 -67 36 -67 14 0 -7 -9 -18 -20 -25 -11 -7 -20 -19 -20 -27 0
-11 -9 -15 -31 -13 -37 3 -45 12 -53 58 -7 39 0 56 28 61 10 2 28 22 40 43 20
36 48 52 69 39 5 -3 -2 -16 -14 -29 l-23 -24 32 16 c26 12 31 20 26 39 -3 13
0 26 7 31 9 5 11 2 6 -9 -3 -9 -2 -19 3 -22 6 -4 10 3 10 14 0 52 36 69 64 30z
m-3481 -424 c-3 -9 -8 -14 -10 -11 -3 3 -2 9 2 15 9 16 15 13 8 -4z m33 -52
c-3 -7 -1 -13 4 -13 6 0 10 -4 10 -9 0 -14 -48 -9 -54 6 -4 9 -2 12 7 7 9 -6
9 -5 0 7 -10 12 -10 18 -1 27 15 15 41 -5 34 -25z m-323 -139 c9 -4 17 -12 17
-19 0 -7 4 -15 9 -17 5 -1 6 -18 3 -36 -4 -29 -8 -33 -28 -29 -13 2 -24 0 -24
-5 0 -5 -8 -4 -18 1 -14 8 -24 5 -43 -12 -33 -31 -97 -60 -115 -53 -9 3 -13
10 -10 15 3 5 -8 14 -25 20 -36 12 -34 32 8 79 21 25 31 29 64 25 27 -4 46 1
66 15 34 24 55 32 68 26 6 -2 18 -7 28 -10z"/>
<path d="M9245 6907 c-8 -12 -15 -32 -15 -44 0 -13 -9 -40 -20 -60 -26 -49
-25 -58 4 -59 47 -3 104 163 61 180 -8 3 -21 -4 -30 -17z"/>
<path d="M1595 6647 c-17 -43 -15 -87 8 -139 14 -33 21 -34 54 -8 16 12 41 20
64 20 31 0 39 4 39 19 0 28 -23 42 -74 43 -49 1 -66 12 -47 31 16 16 14 34 -8
56 -19 19 -20 19 -36 -22z"/>
<path d="M2282 6530 c-15 -24 -16 -50 -2 -50 6 0 10 9 10 19 0 10 7 22 16 25
8 3 12 10 9 16 -9 15 -19 12 -33 -10z"/>
<path d="M1626 6314 c-9 -24 -8 -26 14 -14 11 6 20 15 20 20 0 16 -27 11 -34
-6z"/>
<path d="M9300 6096 c0 -25 5 -48 10 -51 6 -4 10 11 10 39 0 25 -4 48 -10 51
-6 4 -10 -11 -10 -39z"/>
<path d="M9584 5819 c-3 -6 -20 -17 -38 -24 -28 -13 -32 -12 -47 7 -10 13 -23
19 -33 15 -22 -9 -20 -39 3 -54 10 -6 21 -25 24 -42 8 -36 27 -40 46 -9 12 19
14 20 23 4 14 -25 28 -9 28 34 0 21 5 42 10 45 13 8 13 35 1 35 -6 0 -13 -5
-17 -11z"/>
<path d="M7783 6794 c21 -7 23 -34 2 -34 -11 0 -15 -12 -15 -46 0 -56 -23 -57
-28 -1 -3 29 -7 37 -23 37 -27 0 -24 28 4 33 12 3 2 3 -23 2 -72 -5 -177 -45
-257 -97 -40 -26 -73 -50 -73 -53 0 -9 82 -95 91 -95 5 0 30 14 56 30 106 68
236 95 370 79 76 -10 144 -36 236 -91 l38 -23 40 44 c21 24 39 49 39 56 0 15
-81 68 -154 100 -68 30 -69 30 -54 5 10 -16 10 -24 0 -40 -6 -11 -12 -31 -12
-45 0 -33 -18 -32 -31 1 -9 26 -10 26 -24 8 -23 -32 -34 -6 -22 54 7 33 7 56
1 62 -5 5 -47 11 -94 14 -47 3 -77 3 -67 0z m116 -58 c6 -25 11 -53 11 -62 0
-16 -1 -16 -18 -1 -22 20 -43 22 -60 5 -24 -24 -25 3 -2 52 30 65 53 66 69 6z
m-228 14 c13 -7 19 -21 19 -45 0 -51 -53 -73 -92 -38 -50 45 11 116 73 83z
m427 -48 c3 -18 8 -20 33 -15 38 7 38 -11 0 -26 -15 -7 -34 -24 -40 -38 -15
-33 -37 -17 -25 18 4 13 6 39 5 58 -2 24 1 32 11 29 7 -3 14 -14 16 -26z
m-550 -17 c2 -11 11 -28 20 -38 19 -22 7 -35 -18 -19 -28 17 -31 15 -24 -13
11 -43 -21 -30 -47 20 -23 44 -23 45 -4 60 28 21 69 15 73 -10z"/>
<path d="M7856 6725 c-3 -8 -1 -15 4 -15 6 0 10 7 10 15 0 8 -2 15 -4 15 -2 0
-6 -7 -10 -15z"/>
<path d="M7617 6723 c-12 -11 -7 -41 7 -46 21 -8 50 17 43 37 -6 16 -38 22
-50 9z"/>
<path d="M7505 6679 c-10 -15 3 -25 16 -12 7 7 7 13 1 17 -6 3 -14 1 -17 -5z"/>
<path d="M7652 6576 c-34 -13 -81 -36 -103 -50 -47 -31 -119 -95 -119 -106 0
-9 252 -130 272 -130 13 0 17 16 23 83 10 138 11 220 0 223 -5 2 -38 -8 -73
-20z"/>
<path d="M7886 6592 c-3 -3 -4 -49 -1 -101 10 -163 15 -201 30 -201 18 0 262
117 269 129 8 12 -84 93 -143 124 -52 29 -146 58 -155 49z"/>
<path d="M7282 6546 c-108 -123 -167 -327 -148 -507 10 -93 12 -94 82 -74 33
9 62 21 65 26 3 6 1 35 -4 66 -20 116 19 264 98 374 19 27 35 55 35 62 0 16
-71 87 -87 87 -6 0 -25 -15 -41 -34z"/>
<path d="M8252 6537 c-23 -23 -42 -46 -42 -50 0 -4 16 -29 35 -56 80 -111 117
-252 98 -369 -5 -34 -6 -66 -3 -72 4 -6 33 -18 65 -26 70 -19 71 -18 81 84 13
138 -8 244 -75 384 -28 59 -94 148 -110 148 -4 0 -26 -19 -49 -43z"/>
<path d="M7341 6247 c-21 -85 -23 -150 -7 -226 8 -41 18 -76 21 -79 9 -10 255
160 255 177 0 9 -235 171 -248 171 -5 0 -15 -19 -21 -43z"/>
<path d="M8129 6211 c-62 -43 -115 -84 -117 -92 -2 -13 208 -164 238 -171 21
-5 38 68 39 165 1 96 -14 177 -33 177 -7 0 -64 -35 -127 -79z"/>
<path d="M7765 6275 c24 -8 116 -12 103 -4 -7 5 -35 8 -63 8 -27 0 -45 -2 -40
-4z"/>
<path d="M7707 6249 c-15 -12 -32 -31 -38 -42 -8 -14 4 -8 32 18 24 22 46 41
48 43 2 1 0 2 -5 2 -5 0 -21 -10 -37 -21z"/>
<path d="M7911 6234 c39 -42 51 -71 51 -120 0 -83 -54 -141 -143 -154 -49 -7
-51 -8 -15 -9 55 -1 120 33 148 77 43 70 19 190 -45 223 -19 10 -19 8 4 -17z"/>
<path d="M7790 6225 c0 -8 -13 -21 -29 -29 -33 -17 -41 -34 -41 -81 0 -18 3
-41 6 -50 9 -21 56 -45 92 -45 92 0 123 132 42 178 -16 9 -30 23 -30 30 0 6
-9 12 -20 12 -11 0 -20 -7 -20 -15z"/>
<path d="M7642 6115 c0 -16 2 -22 5 -12 2 9 2 23 0 30 -3 6 -5 -1 -5 -18z"/>
<path d="M7650 6070 c0 -34 73 -110 105 -110 6 1 1 6 -10 12 -35 19 -67 52
-81 83 -7 17 -13 23 -14 15z"/>
<path d="M7573 5885 c-73 -35 -133 -68 -133 -73 0 -6 24 -32 53 -58 56 -50
152 -101 211 -111 l36 -6 0 54 c-1 82 -18 241 -27 250 -4 4 -68 -21 -140 -56z"/>
<path d="M7905 5938 c-5 -15 -25 -231 -25 -272 0 -27 2 -28 35 -23 59 10 158
64 220 120 l60 54 -132 67 c-73 36 -137 66 -143 66 -6 0 -13 -6 -15 -12z"/>
<path d="M7245 5911 c-76 -25 -77 -26 -59 -69 55 -134 186 -269 326 -336 108
-52 182 -69 293 -69 171 0 320 57 460 176 37 33 38 35 22 52 -29 28 -56 90
-47 104 6 11 15 11 40 2 18 -6 36 -9 40 -6 4 2 16 -5 28 -15 l21 -20 25 43
c25 42 46 91 46 107 0 9 -84 40 -109 40 -9 0 -29 -25 -46 -57 -44 -84 -132
-174 -212 -216 -275 -144 -598 -48 -741 221 -18 34 -34 62 -35 61 -1 -1 -24
-8 -52 -18z m85 -81 c0 -17 -84 -60 -95 -49 -7 7 -5 13 5 19 8 5 29 18 45 28
29 19 45 20 45 2z m1051 -9 c25 33 36 16 16 -26 -16 -33 -18 -34 -45 -22 -49
21 -76 43 -68 56 6 9 17 6 43 -10 l36 -22 18 24z m-1029 -56 c-17 -36 -15 -41
7 -21 12 11 25 15 32 10 9 -5 0 -19 -31 -45 -24 -21 -48 -35 -53 -32 -5 3 -6
21 -2 40 6 32 5 34 -14 24 -25 -14 -31 -14 -31 2 0 6 19 24 43 39 48 31 67 24
49 -17z m96 -65 c38 -35 40 -45 10 -37 -17 5 -29 -2 -48 -25 -36 -43 -59 -29
-25 16 16 21 22 39 18 54 -7 30 6 27 45 -8z m829 -63 c-5 -13 -19 -14 -57 -2
-20 6 -23 5 -12 -6 14 -15 16 -49 2 -49 -14 0 -72 89 -65 100 3 6 18 7 32 4
19 -5 24 -4 19 5 -4 7 -5 20 -1 29 5 14 13 10 46 -26 22 -23 38 -48 36 -55z
m-740 -5 c28 -17 20 -36 -8 -21 -25 13 -41 1 -16 -12 25 -14 11 -30 -21 -23
l-27 5 23 -19 c32 -29 28 -46 -7 -27 -17 8 -33 20 -36 25 -9 14 47 100 60 93
5 -4 20 -13 32 -21z m603 -12 c11 -11 20 -29 20 -40 0 -22 -33 -60 -53 -60
-27 0 -57 31 -57 60 0 18 8 34 22 44 30 21 44 20 68 -4z m-520 -25 c32 -17 39
-45 16 -64 -8 -7 -12 -21 -9 -31 4 -14 0 -20 -11 -20 -10 0 -16 9 -16 25 0 27
-17 34 -26 10 -6 -14 -34 -22 -34 -9 0 10 42 104 47 104 2 0 17 -7 33 -15z
m417 -88 c-4 -33 -21 -19 -38 32 -13 36 -14 51 -6 54 14 5 48 -60 44 -86z
m-77 63 c0 -6 -6 -13 -14 -16 -11 -4 -12 -13 -5 -37 12 -44 11 -57 -5 -57 -7
0 -17 18 -22 43 -5 23 -15 42 -22 42 -6 0 -12 5 -12 10 -1 8 15 14 73 24 4 0
7 -4 7 -9z m-244 -25 c7 -30 24 -33 24 -5 0 11 5 20 10 20 11 0 14 -69 4 -94
-9 -24 -22 -19 -41 17 -16 32 -17 32 -23 8 -7 -29 -30 -40 -30 -14 0 37 21 93
35 93 8 0 17 -11 21 -25z m139 -27 c9 -24 19 -49 22 -55 3 -7 -2 -13 -11 -13
-9 0 -16 5 -16 10 0 6 -11 10 -25 10 -14 0 -25 -4 -25 -10 0 -5 -5 -10 -11
-10 -12 0 -8 35 10 83 15 39 36 33 56 -15z"/>
<path d="M8080 5595 c-11 -13 -11 -19 3 -32 21 -21 49 -9 45 19 -4 28 -30 35
-48 13z"/>
<path d="M7595 5560 c3 -5 10 -10 16 -10 5 0 9 5 9 10 0 6 -7 10 -16 10 -8 0
-12 -4 -9 -10z"/>
<path d="M7821 5504 c0 -11 3 -14 6 -6 3 7 2 16 -1 19 -3 4 -6 -2 -5 -13z"/>
<path d="M8310 5684 c0 -8 5 -12 10 -9 6 3 10 10 10 16 0 5 -4 9 -10 9 -5 0
-10 -7 -10 -16z"/>
<path d="M3387 6393 c-4 -3 -7 -46 -7 -95 l0 -88 70 0 c68 0 70 1 70 25 0 18
-5 25 -20 25 -29 0 -47 42 -32 75 14 30 28 32 42 5 11 -21 11 -21 35 2 31 29
31 44 3 52 -31 8 -153 8 -161 -1z"/>
<path d="M2533 5994 c-3 -8 -12 -13 -19 -10 -30 11 -13 -33 18 -48 17 -9 33
-16 35 -16 1 0 3 18 3 39 0 41 -25 65 -37 35z"/>
<path d="M3973 6220 c-27 -11 -39 -33 -48 -88 -12 -71 2 -147 32 -176 28 -28
87 -35 125 -15 44 23 63 148 35 229 -18 52 -82 75 -144 50z"/>
<path d="M4812 6040 c-31 -13 -46 -49 -33 -83 11 -27 20 -30 76 -28 81 4 85 8
85 67 l0 54 -52 -1 c-29 0 -63 -4 -76 -9z"/>
<path d="M5665 6043 c-33 -8 -45 -24 -45 -57 0 -59 27 -71 123 -52 l37 7 0 54
0 55 -47 -1 c-27 -1 -57 -4 -68 -6z"/>
<path d="M2804 5342 c-34 -27 -44 -56 -44 -127 0 -60 3 -69 29 -96 41 -41 98
-41 143 0 32 28 33 32 33 106 0 74 -1 78 -33 106 -38 34 -94 39 -128 11z"/>
<path d="M8470 5460 c-39 -39 -14 -100 43 -100 26 0 57 31 57 58 0 18 -46 62
-65 62 -8 0 -24 -9 -35 -20z m67 -48 c1 -41 0 -43 -16 -28 -22 20 -31 20 -31
0 0 -8 -4 -12 -10 -9 -5 3 -10 24 -10 46 0 39 1 40 33 37 30 -3 32 -5 34 -46z"/>
<path d="M8498 5433 c7 -3 16 -2 19 1 4 3 -2 6 -13 5 -11 0 -14 -3 -6 -6z"/>
<path d="M3292 5344 c-33 -23 -52 -67 -52 -119 0 -82 43 -135 111 -135 106 0
154 148 77 236 -25 28 -37 34 -72 34 -23 0 -52 -7 -64 -16z"/>
<path d="M4895 5233 c-49 -10 -74 -27 -86 -55 -30 -74 61 -120 122 -62 24 23
29 36 29 76 0 51 -5 54 -65 41z"/>
<path d="M5770 5228 c-49 -14 -70 -36 -70 -74 0 -42 23 -64 66 -64 50 0 84 37
84 90 0 22 0 43 0 48 1 11 -41 12 -80 0z"/>
<path d="M6034 5326 c-32 -32 -34 -38 -34 -99 0 -75 20 -109 74 -127 45 -15
99 7 120 49 19 35 21 122 5 154 -19 36 -52 57 -92 57 -31 0 -46 -7 -73 -34z"/>
<path d="M6431 5230 c-46 -11 -74 -42 -74 -81 0 -61 74 -81 125 -32 23 22 28
35 28 75 0 53 -5 55 -79 38z"/>
<path d="M5872 4554 c-33 -23 -52 -67 -52 -121 0 -113 97 -171 172 -104 30 27
33 34 36 105 4 73 3 76 -26 106 -35 35 -92 41 -130 14z"/>
<path d="M6227 4559 c-17 -10 -47 -59 -47 -79 0 -6 35 -10 95 -10 79 0 95 3
95 15 0 25 -27 72 -45 79 -25 9 -78 7 -98 -5z"/>
<path d="M3527 4435 c-21 -7 -40 -15 -41 -17 -68 -79 31 -163 105 -89 24 24
29 38 29 75 0 44 -1 46 -27 46 -16 -1 -45 -7 -66 -15z"/>
<path d="M3841 4556 c-35 -20 -50 -54 -51 -118 0 -71 13 -101 55 -123 44 -24
96 -14 129 26 47 55 35 177 -20 214 -28 18 -80 19 -113 1z"/>
<path d="M4552 4440 c-47 -11 -72 -37 -72 -75 0 -58 50 -81 109 -50 34 17 41
33 41 91 0 48 -6 51 -78 34z"/>
<path d="M5396 4435 c-51 -18 -60 -28 -60 -71 0 -67 72 -87 125 -35 24 24 29
38 29 75 0 44 -1 46 -27 46 -16 -1 -45 -7 -67 -15z"/>
<path d="M6765 3260 c-3 -5 -2 -10 4 -10 5 0 13 5 16 10 3 6 2 10 -4 10 -5 0
-13 -4 -16 -10z"/>
</g>
</svg>
